<svg width="20" height="20" viewBox="0 0 20 20" fill="none" xmlns="http://www.w3.org/2000/svg">
<mask id="mask0_4249_12902" style="mask-type:alpha" maskUnits="userSpaceOnUse" x="0" y="0" width="20" height="20">
<rect width="20" height="20" fill="#D9D9D9"/>
</mask>
<g mask="url(#mask0_4249_12902)">
<path d="M1.66683 16.6667C1.43072 16.6667 1.2328 16.5868 1.07308 16.4271C0.913357 16.2674 0.833496 16.0695 0.833496 15.8334V14.3334C0.833496 13.8612 0.955024 13.4271 1.19808 13.0313C1.44114 12.6355 1.76405 12.3334 2.16683 12.125C3.02794 11.6945 3.90294 11.3716 4.79183 11.1563C5.68072 10.941 6.5835 10.8334 7.50016 10.8334C8.41683 10.8334 9.31961 10.941 10.2085 11.1563C11.0974 11.3716 11.9724 11.6945 12.8335 12.125C13.2363 12.3334 13.5592 12.6355 13.8022 13.0313C14.0453 13.4271 14.1668 13.8612 14.1668 14.3334V15.8334C14.1668 16.0695 14.087 16.2674 13.9272 16.4271C13.7675 16.5868 13.5696 16.6667 13.3335 16.6667H1.66683ZM15.4377 16.6667C15.5627 16.5695 15.6599 16.448 15.7293 16.3021C15.7988 16.1563 15.8335 15.9931 15.8335 15.8125V14.1667C15.8335 13.5556 15.6634 12.9688 15.3231 12.4063C14.9828 11.8438 14.5002 11.3612 13.8752 10.9584C14.5835 11.0417 15.2502 11.1841 15.8752 11.3855C16.5002 11.5868 17.0835 11.8334 17.6252 12.125C18.1252 12.4028 18.5071 12.7118 18.771 13.0521C19.0349 13.3924 19.1668 13.7639 19.1668 14.1667V15.8334C19.1668 16.0695 19.087 16.2674 18.9272 16.4271C18.7675 16.5868 18.5696 16.6667 18.3335 16.6667H15.4377ZM7.50016 10C6.5835 10 5.79877 9.67365 5.146 9.02087C4.49322 8.3681 4.16683 7.58337 4.16683 6.66671C4.16683 5.75004 4.49322 4.96532 5.146 4.31254C5.79877 3.65976 6.5835 3.33337 7.50016 3.33337C8.41683 3.33337 9.20155 3.65976 9.85433 4.31254C10.5071 4.96532 10.8335 5.75004 10.8335 6.66671C10.8335 7.58337 10.5071 8.3681 9.85433 9.02087C9.20155 9.67365 8.41683 10 7.50016 10ZM15.8335 6.66671C15.8335 7.58337 15.5071 8.3681 14.8543 9.02087C14.2016 9.67365 13.4168 10 12.5002 10C12.3474 10 12.1529 9.98268 11.9168 9.94796C11.6807 9.91323 11.4863 9.87504 11.3335 9.83337C11.7085 9.38893 11.9967 8.89587 12.1981 8.35421C12.3995 7.81254 12.5002 7.25004 12.5002 6.66671C12.5002 6.08337 12.3995 5.52087 12.1981 4.97921C11.9967 4.43754 11.7085 3.94449 11.3335 3.50004C11.5279 3.4306 11.7224 3.38546 11.9168 3.36462C12.1113 3.34379 12.3057 3.33337 12.5002 3.33337C13.4168 3.33337 14.2016 3.65976 14.8543 4.31254C15.5071 4.96532 15.8335 5.75004 15.8335 6.66671ZM2.50016 15H12.5002V14.3334C12.5002 14.1806 12.462 14.0417 12.3856 13.9167C12.3092 13.7917 12.2085 13.6945 12.0835 13.625C11.3335 13.25 10.5766 12.9688 9.81266 12.7813C9.04878 12.5938 8.27794 12.5 7.50016 12.5C6.72239 12.5 5.95155 12.5938 5.18766 12.7813C4.42377 12.9688 3.66683 13.25 2.91683 13.625C2.79183 13.6945 2.69114 13.7917 2.61475 13.9167C2.53836 14.0417 2.50016 14.1806 2.50016 14.3334V15ZM7.50016 8.33337C7.9585 8.33337 8.35086 8.17018 8.67725 7.84379C9.00364 7.5174 9.16683 7.12504 9.16683 6.66671C9.16683 6.20837 9.00364 5.81601 8.67725 5.48962C8.35086 5.16324 7.9585 5.00004 7.50016 5.00004C7.04183 5.00004 6.64947 5.16324 6.32308 5.48962C5.99669 5.81601 5.8335 6.20837 5.8335 6.66671C5.8335 7.12504 5.99669 7.5174 6.32308 7.84379C6.64947 8.17018 7.04183 8.33337 7.50016 8.33337Z" fill="#74879B"/>
</g>
</svg>
