<svg width="20" height="20" viewBox="0 0 20 20" fill="none" xmlns="http://www.w3.org/2000/svg">
<mask id="mask0_4249_12982" style="mask-type:alpha" maskUnits="userSpaceOnUse" x="0" y="0" width="20" height="20">
<rect width="20" height="20" fill="#D9D9D9"/>
</mask>
<g mask="url(#mask0_4249_12982)">
<path d="M9.99984 13.7291C11.3748 12.618 12.413 11.5486 13.1144 10.5208C13.8158 9.49302 14.1665 8.52774 14.1665 7.62496C14.1665 6.84718 14.0241 6.18399 13.7394 5.63538C13.4547 5.08677 13.104 4.64232 12.6873 4.30204C12.2707 3.96177 11.8193 3.71524 11.3332 3.56246C10.8471 3.40968 10.4026 3.33329 9.99984 3.33329C9.59706 3.33329 9.15262 3.40968 8.6665 3.56246C8.18039 3.71524 7.729 3.96177 7.31234 4.30204C6.89567 4.64232 6.54498 5.08677 6.26025 5.63538C5.97553 6.18399 5.83317 6.84718 5.83317 7.62496C5.83317 8.52774 6.18387 9.49302 6.88525 10.5208C7.58664 11.5486 8.62484 12.618 9.99984 13.7291ZM9.99984 15.5416C9.87484 15.5416 9.75678 15.5243 9.64567 15.4895C9.53456 15.4548 9.43039 15.4027 9.33317 15.3333C7.59706 13.9861 6.30192 12.6736 5.44775 11.3958C4.59359 10.118 4.1665 8.86107 4.1665 7.62496C4.1665 6.63885 4.34359 5.77426 4.69775 5.03121C5.05192 4.28815 5.50678 3.66663 6.06234 3.16663C6.61789 2.66663 7.24289 2.29163 7.93734 2.04163C8.63178 1.79163 9.31928 1.66663 9.99984 1.66663C10.6804 1.66663 11.3679 1.79163 12.0623 2.04163C12.7568 2.29163 13.3818 2.66663 13.9373 3.16663C14.4929 3.66663 14.9478 4.28815 15.3019 5.03121C15.6561 5.77426 15.8332 6.63885 15.8332 7.62496C15.8332 8.86107 15.4061 10.118 14.5519 11.3958C13.6978 12.6736 12.4026 13.9861 10.6665 15.3333C10.5832 15.4027 10.4825 15.4548 10.3644 15.4895C10.2464 15.5243 10.1248 15.5416 9.99984 15.5416ZM9.99984 9.16663C10.4582 9.16663 10.8505 9.00343 11.1769 8.67704C11.5033 8.35065 11.6665 7.95829 11.6665 7.49996C11.6665 7.04163 11.5033 6.64927 11.1769 6.32288C10.8505 5.99649 10.4582 5.83329 9.99984 5.83329C9.5415 5.83329 9.14914 5.99649 8.82275 6.32288C8.49637 6.64927 8.33317 7.04163 8.33317 7.49996C8.33317 7.95829 8.49637 8.35065 8.82275 8.67704C9.14914 9.00343 9.5415 9.16663 9.99984 9.16663ZM4.99984 18.3333C4.76373 18.3333 4.56581 18.2534 4.40609 18.0937C4.24637 17.934 4.1665 17.7361 4.1665 17.5C4.1665 17.2638 4.24637 17.0659 4.40609 16.9062C4.56581 16.7465 4.76373 16.6666 4.99984 16.6666H14.9998C15.2359 16.6666 15.4339 16.7465 15.5936 16.9062C15.7533 17.0659 15.8332 17.2638 15.8332 17.5C15.8332 17.7361 15.7533 17.934 15.5936 18.0937C15.4339 18.2534 15.2359 18.3333 14.9998 18.3333H4.99984Z" fill="#74879B"/>
</g>
</svg>
