<svg width="20" height="20" viewBox="0 0 20 20" fill="none" xmlns="http://www.w3.org/2000/svg">
<mask id="mask0_4249_12998" style="mask-type:alpha" maskUnits="userSpaceOnUse" x="0" y="0" width="20" height="20">
<rect width="20" height="20" fill="#D9D9D9"/>
</mask>
<g mask="url(#mask0_4249_12998)">
<path d="M2.49979 15C2.15257 15 1.90256 14.8472 1.74979 14.5417C1.59701 14.2361 1.62479 13.9444 1.83312 13.6667L5.16645 9.22917C5.33312 9.00694 5.55534 8.89583 5.83312 8.89583C6.1109 8.89583 6.33312 9.00694 6.49979 9.22917L9.58312 13.3333H15.8331L11.6665 7.79167L9.58312 10.5417L8.54145 9.16667L10.9998 5.89583C11.1665 5.67361 11.3887 5.5625 11.6665 5.5625C11.9442 5.5625 12.1665 5.67361 12.3331 5.89583L18.1665 13.6667C18.3748 13.9444 18.4026 14.2361 18.2498 14.5417C18.097 14.8472 17.847 15 17.4998 15H2.49979ZM4.16645 13.3333H7.49979L5.83312 11.1042L4.16645 13.3333Z" fill="#74879B"/>
</g>
</svg>
