<svg width="20" height="20" viewBox="0 0 20 20" fill="none" xmlns="http://www.w3.org/2000/svg">
<mask id="mask0_4249_12966" style="mask-type:alpha" maskUnits="userSpaceOnUse" x="0" y="0" width="20" height="20">
<rect width="20" height="20" fill="#D9D9D9"/>
</mask>
<g mask="url(#mask0_4249_12966)">
<path d="M5 18.3333C4.30556 18.3333 3.71528 18.0902 3.22917 17.6041C2.74306 17.118 2.5 16.5277 2.5 15.8333V15C2.5 14.5416 2.66319 14.1493 2.98958 13.8229C3.31597 13.4965 3.70833 13.3333 4.16667 13.3333H5V3.33329C5 2.87496 5.16319 2.4826 5.48958 2.15621C5.81597 1.82982 6.20833 1.66663 6.66667 1.66663H15.8333C16.2917 1.66663 16.684 1.82982 17.0104 2.15621C17.3368 2.4826 17.5 2.87496 17.5 3.33329V9.24996C17.2222 9.18052 16.941 9.15968 16.6563 9.18746C16.3715 9.21524 16.0972 9.28468 15.8333 9.39579V3.33329H6.66667V13.3333H11.6667L10 15H4.16667V15.8333C4.16667 16.0694 4.24653 16.2673 4.40625 16.427C4.56597 16.5868 4.76389 16.6666 5 16.6666H10V18.3333H5ZM12.9167 17.0833H13.7917L17.0208 13.875L17.8958 14.75L14.5625 18.0833C14.4792 18.1666 14.3854 18.2291 14.2812 18.2708C14.1771 18.3125 14.0694 18.3333 13.9583 18.3333H12.5C12.2639 18.3333 12.066 18.2534 11.9062 18.0937C11.7465 17.934 11.6667 17.7361 11.6667 17.5V16.0416C11.6667 15.9305 11.6875 15.8229 11.7292 15.7187C11.7708 15.6145 11.8333 15.5208 11.9167 15.4375L15.25 12.1041L16.1458 13L12.9167 16.2083V17.0833ZM17.8958 14.75L15.25 12.1041L16.2917 11.0625C16.4444 10.9097 16.6389 10.8333 16.875 10.8333C17.1111 10.8333 17.3056 10.9097 17.4583 11.0625L18.9375 12.5416C19.0903 12.6944 19.1667 12.8888 19.1667 13.125C19.1667 13.3611 19.0903 13.5555 18.9375 13.7083L17.8958 14.75ZM8.33333 7.49996C8.09722 7.49996 7.89931 7.4201 7.73958 7.26038C7.57986 7.10065 7.5 6.90274 7.5 6.66663C7.5 6.43052 7.57986 6.2326 7.73958 6.07288C7.89931 5.91315 8.09722 5.83329 8.33333 5.83329H14.1667C14.4028 5.83329 14.6007 5.91315 14.7604 6.07288C14.9201 6.2326 15 6.43052 15 6.66663C15 6.90274 14.9201 7.10065 14.7604 7.26038C14.6007 7.4201 14.4028 7.49996 14.1667 7.49996H8.33333ZM8.33333 9.99996C8.09722 9.99996 7.89931 9.9201 7.73958 9.76038C7.57986 9.60065 7.5 9.40274 7.5 9.16663C7.5 8.93052 7.57986 8.7326 7.73958 8.57288C7.89931 8.41315 8.09722 8.33329 8.33333 8.33329H14.1667C14.4028 8.33329 14.6007 8.41315 14.7604 8.57288C14.9201 8.7326 15 8.93052 15 9.16663C15 9.40274 14.9201 9.60065 14.7604 9.76038C14.6007 9.9201 14.4028 9.99996 14.1667 9.99996H8.33333Z" fill="#74879B"/>
</g>
</svg>
