<svg width="20" height="20" viewBox="0 0 20 20" fill="none" xmlns="http://www.w3.org/2000/svg">
<mask id="mask0_4249_12918" style="mask-type:alpha" maskUnits="userSpaceOnUse" x="0" y="0" width="20" height="20">
<rect width="20" height="20" fill="#D9D9D9"/>
</mask>
<g mask="url(#mask0_4249_12918)">
<path d="M3.31266 16.4792C2.61822 16.4792 2.03141 16.2362 1.55225 15.75C1.07308 15.2639 0.833496 14.6737 0.833496 13.9792V8.97921C0.833496 8.52087 0.996691 8.12851 1.32308 7.80212C1.64947 7.47574 2.04183 7.31254 2.50016 7.31254H6.66683V3.97921C6.66683 3.7431 6.74669 3.54518 6.90641 3.38546C7.06613 3.22574 7.26405 3.14587 7.50016 3.14587H10.8335C11.5279 3.14587 12.1182 3.38893 12.6043 3.87504C13.0904 4.36115 13.3335 4.95143 13.3335 5.64587L13.3127 8.97921H14.146V8.00004C14.1599 7.77782 14.2085 7.56254 14.2918 7.35421C14.3752 7.14587 14.4932 6.96532 14.646 6.81254L15.4585 6.02087C15.6529 5.82643 15.8856 5.75004 16.1564 5.79171C16.4272 5.83337 16.6321 5.97921 16.771 6.22921L19.3335 11.0834C19.4863 11.3612 19.4828 11.6355 19.3231 11.9063C19.1634 12.1771 18.9238 12.3125 18.6043 12.3125H15.8127C15.3543 12.3125 14.962 12.1493 14.6356 11.823C14.3092 11.4966 14.146 11.1042 14.146 10.6459H13.3127V12.1042C13.5904 12.3403 13.8022 12.6216 13.9481 12.948C14.0939 13.2743 14.1668 13.6181 14.1668 13.9792C14.1668 14.6737 13.9238 15.2639 13.4377 15.75C12.9516 16.2362 12.3613 16.4792 11.6668 16.4792C11.1391 16.4792 10.6599 16.3264 10.2293 16.0209C9.79877 15.7153 9.48627 15.3125 9.29183 14.8125H5.68766C5.49322 15.3125 5.18072 15.7153 4.75016 16.0209C4.31961 16.3264 3.84044 16.4792 3.31266 16.4792ZM3.31266 14.8125C3.54877 14.8125 3.75016 14.7327 3.91683 14.573C4.0835 14.4132 4.16683 14.2153 4.16683 13.9792C4.16683 13.7431 4.08697 13.5452 3.92725 13.3855C3.76752 13.2257 3.56961 13.1459 3.3335 13.1459C3.09738 13.1459 2.89947 13.2257 2.73975 13.3855C2.58002 13.5452 2.50016 13.7431 2.50016 13.9792C2.50016 14.2153 2.57655 14.4132 2.72933 14.573C2.88211 14.7327 3.07655 14.8125 3.31266 14.8125ZM11.6668 14.8125C11.9029 14.8125 12.1009 14.7327 12.2606 14.573C12.4203 14.4132 12.5002 14.2153 12.5002 13.9792C12.5002 13.7431 12.4203 13.5452 12.2606 13.3855C12.1009 13.2257 11.9029 13.1459 11.6668 13.1459C11.4307 13.1459 11.2328 13.2257 11.0731 13.3855C10.9134 13.5452 10.8335 13.7431 10.8335 13.9792C10.8335 14.2153 10.9134 14.4132 11.0731 14.573C11.2328 14.7327 11.4307 14.8125 11.6668 14.8125ZM6.66683 13.1459V8.97921H2.50016V11.625C2.63905 11.5695 2.77447 11.5313 2.90641 11.5105C3.03836 11.4896 3.18072 11.4792 3.3335 11.4792C3.86127 11.4792 4.34044 11.632 4.771 11.9375C5.20155 12.2431 5.50711 12.6459 5.68766 13.1459H6.66683ZM8.3335 13.1459H9.29183C9.47239 12.6459 9.78141 12.2431 10.2189 11.9375C10.6564 11.632 11.1391 11.4792 11.6668 11.4792V10.6459H8.3335V13.1459ZM17.2293 10.6459L15.8335 8.00004V10.6459H17.2293ZM8.3335 8.97921H11.6668V5.64587C11.6668 5.40976 11.587 5.21185 11.4272 5.05212C11.2675 4.8924 11.0696 4.81254 10.8335 4.81254H8.3335V8.97921ZM6.66683 13.1459V11.4792V11.625V8.97921V13.1459Z" fill="#74879B"/>
</g>
</svg>
