<svg width="20" height="20" viewBox="0 0 20 20" fill="none" xmlns="http://www.w3.org/2000/svg">
<mask id="mask0_4249_12950" style="mask-type:alpha" maskUnits="userSpaceOnUse" x="0" y="0" width="20" height="20">
<rect width="20" height="20" fill="#D9D9D9"/>
</mask>
<g mask="url(#mask0_4249_12950)">
<path d="M3.33317 16.6667C2.87484 16.6667 2.48248 16.5035 2.15609 16.1771C1.8297 15.8507 1.6665 15.4584 1.6665 15V5.00004C1.6665 4.54171 1.8297 4.14935 2.15609 3.82296C2.48248 3.49657 2.87484 3.33337 3.33317 3.33337H16.6665C17.1248 3.33337 17.5172 3.49657 17.8436 3.82296C18.17 4.14935 18.3332 4.54171 18.3332 5.00004V15C18.3332 15.4584 18.17 15.8507 17.8436 16.1771C17.5172 16.5035 17.1248 16.6667 16.6665 16.6667H3.33317ZM3.33317 15H16.6665V5.00004H3.33317V15ZM8.33317 11.6667H5.83317C5.59706 11.6667 5.39914 11.7466 5.23942 11.9063C5.0797 12.066 4.99984 12.2639 4.99984 12.5C4.99984 12.7362 5.0797 12.9341 5.23942 13.0938C5.39914 13.2535 5.59706 13.3334 5.83317 13.3334H6.6665C6.6665 13.5695 6.74637 13.7674 6.90609 13.9271C7.06581 14.0868 7.26373 14.1667 7.49984 14.1667C7.73595 14.1667 7.93387 14.0868 8.09359 13.9271C8.25331 13.7674 8.33317 13.5695 8.33317 13.3334H9.1665C9.40262 13.3334 9.60053 13.2535 9.76025 13.0938C9.91998 12.9341 9.99984 12.7362 9.99984 12.5V10C9.99984 9.76393 9.91998 9.56601 9.76025 9.40629C9.60053 9.24657 9.40262 9.16671 9.1665 9.16671H6.6665V8.33337H9.1665C9.40262 8.33337 9.60053 8.25351 9.76025 8.09379C9.91998 7.93407 9.99984 7.73615 9.99984 7.50004C9.99984 7.26393 9.91998 7.06601 9.76025 6.90629C9.60053 6.74657 9.40262 6.66671 9.1665 6.66671H8.33317C8.33317 6.4306 8.25331 6.23268 8.09359 6.07296C7.93387 5.91324 7.73595 5.83337 7.49984 5.83337C7.26373 5.83337 7.06581 5.91324 6.90609 6.07296C6.74637 6.23268 6.6665 6.4306 6.6665 6.66671H5.83317C5.59706 6.66671 5.39914 6.74657 5.23942 6.90629C5.0797 7.06601 4.99984 7.26393 4.99984 7.50004V10C4.99984 10.2362 5.0797 10.4341 5.23942 10.5938C5.39914 10.7535 5.59706 10.8334 5.83317 10.8334H8.33317V11.6667ZM13.479 13.3959L14.6457 12.2292C14.7151 12.1598 14.7325 12.0834 14.6978 12C14.663 11.9167 14.5971 11.875 14.4998 11.875H12.1665C12.0693 11.875 12.0033 11.9167 11.9686 12C11.9339 12.0834 11.9512 12.1598 12.0207 12.2292L13.1873 13.3959C13.229 13.4375 13.2776 13.4584 13.3332 13.4584C13.3887 13.4584 13.4373 13.4375 13.479 13.3959ZM12.1665 8.33337H14.4998C14.5971 8.33337 14.663 8.29171 14.6978 8.20837C14.7325 8.12504 14.7151 8.04865 14.6457 7.97921L13.479 6.81254C13.4373 6.77087 13.3887 6.75004 13.3332 6.75004C13.2776 6.75004 13.229 6.77087 13.1873 6.81254L12.0207 7.97921C11.9512 8.04865 11.9339 8.12504 11.9686 8.20837C12.0033 8.29171 12.0693 8.33337 12.1665 8.33337Z" fill="#74879B"/>
</g>
</svg>
