<svg width="20" height="20" viewBox="0 0 20 20" fill="none" xmlns="http://www.w3.org/2000/svg">
<mask id="mask0_4249_12878" style="mask-type:alpha" maskUnits="userSpaceOnUse" x="0" y="0" width="20" height="20">
<rect width="20" height="20" fill="#D9D9D9"/>
</mask>
<g mask="url(#mask0_4249_12878)">
<path d="M4.16667 17.0104C3.70833 17.0104 3.31597 16.8472 2.98958 16.5208C2.66319 16.1944 2.5 15.802 2.5 15.3437V3.67702C2.5 3.21869 2.66319 2.82633 2.98958 2.49994C3.31597 2.17355 3.70833 2.01036 4.16667 2.01036H7.5C7.73611 2.01036 7.93403 2.09022 8.09375 2.24994C8.25347 2.40966 8.33333 2.60758 8.33333 2.84369C8.33333 3.0798 8.25347 3.27772 8.09375 3.43744C7.93403 3.59716 7.73611 3.67702 7.5 3.67702H4.16667V15.3437H15.8333V12.552C15.8333 12.3159 15.9132 12.118 16.0729 11.9583C16.2326 11.7985 16.4306 11.7187 16.6667 11.7187C16.9028 11.7187 17.1007 11.7985 17.2604 11.9583C17.4201 12.118 17.5 12.3159 17.5 12.552V15.3437C17.5 15.802 17.3368 16.1944 17.0104 16.5208C16.684 16.8472 16.2917 17.0104 15.8333 17.0104H4.16667ZM13.375 8.67702C12.3472 8.67702 11.4722 8.31244 10.75 7.58327C10.0278 6.85411 9.66667 5.96869 9.66667 4.92702C9.66667 3.88536 10.0312 2.99994 10.7604 2.27077C11.4896 1.54161 12.375 1.17702 13.4167 1.17702C14.4583 1.17702 15.3438 1.54161 16.0729 2.27077C16.8021 2.99994 17.1667 3.88536 17.1667 4.92702C17.1667 5.30202 17.1111 5.66313 17 6.01036C16.8889 6.35758 16.75 6.67702 16.5833 6.96869L18.5417 8.92702C18.6944 9.0798 18.7708 9.27424 18.7708 9.51035C18.7708 9.74647 18.6944 9.94091 18.5417 10.0937C18.3889 10.2465 18.1944 10.3229 17.9583 10.3229C17.7222 10.3229 17.5278 10.2465 17.375 10.0937L15.375 8.09369C15.0833 8.28813 14.7708 8.43397 14.4375 8.53119C14.1042 8.62841 13.75 8.67702 13.375 8.67702ZM13.4167 7.01036C14 7.01036 14.4931 6.80897 14.8958 6.40619C15.2986 6.00341 15.5 5.51036 15.5 4.92702C15.5 4.34369 15.2986 3.85063 14.8958 3.44786C14.4931 3.04508 14 2.84369 13.4167 2.84369C12.8333 2.84369 12.3403 3.04508 11.9375 3.44786C11.5347 3.85063 11.3333 4.34369 11.3333 4.92702C11.3333 5.51036 11.5347 6.00341 11.9375 6.40619C12.3403 6.80897 12.8333 7.01036 13.4167 7.01036Z" fill="#74879B"/>
<path d="M7.21035 10.7575C7.03307 10.2257 7.08714 9.64383 7.3594 9.15376L8.61362 6.89616C8.79626 6.56741 9.26282 6.55039 9.46893 6.86496L10.7801 8.86614C11.0801 9.32409 11.1793 9.88502 11.0545 10.4181L9.99996 14.9229H8.5988L7.21035 10.7575Z" fill="#74879B"/>
<path d="M11.1567 11.9098C11.2179 11.7504 11.3189 11.6093 11.4501 11.5L12.9299 10.2668C13.2556 9.9954 13.75 10.227 13.75 10.6509V12.3712C13.75 12.668 13.6182 12.9495 13.3902 13.1394L11.25 14.9229H10L11.1567 11.9098Z" fill="#74879B"/>
<path d="M7.49293 12.3429C7.39976 12.1255 7.23255 11.9482 7.021 11.8424L5.70217 11.183C5.34142 11.0026 4.92655 11.3016 4.98359 11.7009L5.19799 13.2017C5.24057 13.4998 5.41523 13.7628 5.67344 13.9178L7.34863 14.9229H8.59863L7.49293 12.3429Z" fill="#74879B"/>
</g>
</svg>
