<svg width="24" height="24" viewBox="0 0 24 24" fill="none" xmlns="http://www.w3.org/2000/svg">
<path d="M12.0036 19C12.9595 19 13.8602 18.8151 14.7056 18.4452C15.551 18.0801 16.2956 17.5757 16.9393 16.9321C17.5829 16.2884 18.0873 15.5462 18.4524 14.7056C18.8175 13.8602 19 12.9571 19 11.9964C19 11.0405 18.8151 10.1398 18.4452 9.29439C18.0801 8.44896 17.5757 7.70441 16.9321 7.06073C16.2884 6.41705 15.5438 5.91268 14.6984 5.54761C13.853 5.18254 12.9523 5 11.9964 5C11.0405 5 10.1398 5.18254 9.29439 5.54761C8.45377 5.91268 7.70921 6.41705 7.06073 7.06073C6.41705 7.70441 5.91268 8.44896 5.54761 9.29439C5.18254 10.1398 5 11.0405 5 11.9964C5 12.9571 5.18254 13.8602 5.54761 14.7056C5.91748 15.5462 6.42426 16.2884 7.06794 16.9321C7.71161 17.5757 8.45377 18.0801 9.29439 18.4452C10.1398 18.8151 11.0429 19 12.0036 19ZM12.0036 17.7174C11.211 17.7174 10.4689 17.5685 9.77715 17.2707C9.08544 16.9777 8.47778 16.5694 7.95419 16.0458C7.43061 15.5222 7.0223 14.9146 6.72928 14.2229C6.43627 13.5311 6.28976 12.789 6.28976 11.9964C6.28976 11.2038 6.43627 10.4617 6.72928 9.76994C7.0223 9.07823 7.43061 8.47058 7.95419 7.94699C8.47778 7.4234 9.08303 7.0151 9.76994 6.72208C10.4617 6.42906 11.2038 6.28255 11.9964 6.28255C12.789 6.28255 13.5311 6.42906 14.2229 6.72208C14.9194 7.0151 15.5294 7.4234 16.053 7.94699C16.5766 8.47058 16.9849 9.07823 17.2779 9.76994C17.5709 10.4617 17.7174 11.2038 17.7174 11.9964C17.7174 12.789 17.5709 13.5311 17.2779 14.2229C16.9849 14.9146 16.5766 15.5222 16.053 16.0458C15.5294 16.5694 14.9218 16.9777 14.2301 17.2707C13.5383 17.5685 12.7962 17.7174 12.0036 17.7174ZM10.8075 15.772H13.5672C13.7113 15.772 13.8338 15.724 13.9346 15.6279C14.0355 15.5318 14.0859 15.4117 14.0859 15.2676C14.0859 15.1331 14.0355 15.0178 13.9346 14.9218C13.8338 14.8209 13.7113 14.7705 13.5672 14.7705H12.7674V11.4416C12.7674 11.2446 12.7193 11.0885 12.6233 10.9732C12.5272 10.8531 12.3879 10.7931 12.2054 10.7931H10.9228C10.7787 10.7931 10.6562 10.8411 10.5553 10.9372C10.4545 11.0333 10.404 11.151 10.404 11.2903C10.404 11.4392 10.4545 11.5617 10.5553 11.6577C10.6562 11.749 10.7787 11.7946 10.9228 11.7946H11.6289V14.7705H10.8075C10.6634 14.7705 10.5409 14.8209 10.44 14.9218C10.3392 15.0178 10.2887 15.1331 10.2887 15.2676C10.2887 15.4117 10.3392 15.5318 10.44 15.6279C10.5409 15.724 10.6634 15.772 10.8075 15.772ZM11.946 9.69789C12.2005 9.69789 12.4143 9.61143 12.5872 9.4385C12.765 9.26077 12.8538 9.04701 12.8538 8.79722C12.8538 8.54263 12.765 8.32647 12.5872 8.14874C12.4143 7.97101 12.2005 7.88214 11.946 7.88214C11.6962 7.88214 11.4824 7.97101 11.3047 8.14874C11.1318 8.32647 11.0453 8.54263 11.0453 8.79722C11.0453 9.04701 11.1318 9.26077 11.3047 9.4385C11.4824 9.61143 11.6962 9.69789 11.946 9.69789Z" fill="white"/>
</svg>
