<svg width="32" height="32" viewBox="0 0 32 32" fill="none" xmlns="http://www.w3.org/2000/svg">
<mask id="mask0_1_142" style="mask-type:alpha" maskUnits="userSpaceOnUse" x="0" y="0" width="32" height="32">
<rect width="32" height="32" fill="#D9D9D9"/>
</mask>
<g mask="url(#mask0_1_142)">
<path d="M8 29.3333C6.88889 29.3333 5.94444 28.9444 5.16667 28.1667C4.38889 27.3889 4 26.4444 4 25.3333V24C4 23.2667 4.26111 22.6389 4.78333 22.1167C5.30556 21.5944 5.93333 21.3333 6.66667 21.3333H8V5.33332C8 4.59999 8.26111 3.97221 8.78333 3.44999C9.30556 2.92777 9.93333 2.66666 10.6667 2.66666H25.3333C26.0667 2.66666 26.6944 2.92777 27.2167 3.44999C27.7389 3.97221 28 4.59999 28 5.33332V25.3333C28 26.4444 27.6111 27.3889 26.8333 28.1667C26.0556 28.9444 25.1111 29.3333 24 29.3333H8ZM24 26.6667C24.3778 26.6667 24.6944 26.5389 24.95 26.2833C25.2056 26.0278 25.3333 25.7111 25.3333 25.3333V5.33332H10.6667V21.3333H20C20.7333 21.3333 21.3611 21.5944 21.8833 22.1167C22.4056 22.6389 22.6667 23.2667 22.6667 24V25.3333C22.6667 25.7111 22.7944 26.0278 23.05 26.2833C23.3056 26.5389 23.6222 26.6667 24 26.6667ZM13.3333 12C12.9556 12 12.6389 11.8722 12.3833 11.6167C12.1278 11.3611 12 11.0444 12 10.6667C12 10.2889 12.1278 9.97221 12.3833 9.71666C12.6389 9.4611 12.9556 9.33332 13.3333 9.33332H22.6667C23.0444 9.33332 23.3611 9.4611 23.6167 9.71666C23.8722 9.97221 24 10.2889 24 10.6667C24 11.0444 23.8722 11.3611 23.6167 11.6167C23.3611 11.8722 23.0444 12 22.6667 12H13.3333ZM13.3333 16C12.9556 16 12.6389 15.8722 12.3833 15.6167C12.1278 15.3611 12 15.0444 12 14.6667C12 14.2889 12.1278 13.9722 12.3833 13.7167C12.6389 13.4611 12.9556 13.3333 13.3333 13.3333H22.6667C23.0444 13.3333 23.3611 13.4611 23.6167 13.7167C23.8722 13.9722 24 14.2889 24 14.6667C24 15.0444 23.8722 15.3611 23.6167 15.6167C23.3611 15.8722 23.0444 16 22.6667 16H13.3333ZM8 26.6667H20V24H6.66667V25.3333C6.66667 25.7111 6.79444 26.0278 7.05 26.2833C7.30556 26.5389 7.62222 26.6667 8 26.6667ZM8 26.6667H6.66667H20H8Z" fill="#74879B"/>
</g>
</svg>
