<svg width="22" height="22" viewBox="0 0 18 19" fill="none" xmlns="http://www.w3.org/2000/svg">
<path d="M3 19C2.30133 19 1.71 18.758 1.226 18.274C0.742 17.79 0.5 17.1987 0.5 16.5V15.423C0.5 14.926 0.677 14.5005 1.031 14.1465C1.385 13.7925 1.81058 13.6155 2.30775 13.6155H3.5V1.80775C3.5 1.31058 3.677 0.885 4.031 0.531C4.385 0.177 4.81058 0 5.30775 0H15.6923C16.1894 0 16.615 0.177 16.969 0.531C17.323 0.885 17.5 1.31058 17.5 1.80775V16.5C17.5 17.1987 17.258 17.79 16.774 18.274C16.29 18.758 15.6987 19 15 19H3ZM15 17.5C15.2833 17.5 15.5208 17.4042 15.7125 17.2125C15.9042 17.0208 16 16.7833 16 16.5V1.80775C16 1.71792 15.9712 1.64417 15.9135 1.5865C15.8558 1.52883 15.7821 1.5 15.6923 1.5H5.30775C5.21792 1.5 5.14417 1.52883 5.0865 1.5865C5.02883 1.64417 5 1.71792 5 1.80775V13.6155H12.1923C12.6894 13.6155 13.115 13.7925 13.469 14.1465C13.823 14.5005 14 14.926 14 15.423V16.5C14 16.7833 14.0958 17.0208 14.2875 17.2125C14.4792 17.4042 14.7167 17.5 15 17.5ZM6.94225 6.19225C6.72975 6.19225 6.55167 6.12033 6.408 5.9765C6.26417 5.83267 6.19225 5.6545 6.19225 5.442C6.19225 5.22933 6.26417 5.05125 6.408 4.90775C6.55167 4.76408 6.72975 4.69225 6.94225 4.69225H14.0577C14.2702 4.69225 14.4483 4.76417 14.592 4.908C14.7358 5.05183 14.8077 5.23008 14.8077 5.44275C14.8077 5.65525 14.7358 5.83333 14.592 5.977C14.4483 6.1205 14.2702 6.19225 14.0577 6.19225H6.94225ZM6.94225 9.077C6.72975 9.077 6.55167 9.00508 6.408 8.86125C6.26417 8.71742 6.19225 8.53917 6.19225 8.3265C6.19225 8.114 6.26417 7.93592 6.408 7.79225C6.55167 7.64875 6.72975 7.577 6.94225 7.577H14.0577C14.2702 7.577 14.4483 7.64892 14.592 7.79275C14.7358 7.93642 14.8077 8.11458 14.8077 8.32725C14.8077 8.53992 14.7358 8.718 14.592 8.8615C14.4483 9.00517 14.2702 9.077 14.0577 9.077H6.94225ZM3 17.5H12.5V15.423C12.5 15.3333 12.4712 15.2597 12.4135 15.202C12.3558 15.1442 12.2821 15.1152 12.1923 15.1152H2.30775C2.21792 15.1152 2.14417 15.1442 2.0865 15.202C2.02883 15.2597 2 15.3333 2 15.423V16.5C2 16.7833 2.09583 17.0208 2.2875 17.2125C2.47917 17.4042 2.71667 17.5 3 17.5ZM3 17.5H2H12.5H3Z" fill="#74879B"/>
</svg>
