<svg width="24" height="24" viewBox="0 0 18 19" fill="none" xmlns="http://www.w3.org/2000/svg">
<path d="M8.25 17.0692V9.93072L2 6.31147V13.277C2 13.3281 2.01283 13.3762 2.0385 13.4212C2.06417 13.4661 2.10258 13.5045 2.15375 13.5365L8.25 17.0692ZM9.75 17.0692L15.8462 13.5365C15.8974 13.5045 15.9358 13.4661 15.9615 13.4212C15.9872 13.3762 16 13.3281 16 13.277V6.31147L9.75 9.93072V17.0692ZM8.09625 18.7057L1.404 14.8537C1.11933 14.6897 0.8975 14.4706 0.7385 14.1962C0.5795 13.9217 0.5 13.6204 0.5 13.2922V5.70772C0.5 5.37956 0.5795 5.07822 0.7385 4.80372C0.8975 4.52939 1.11933 4.31022 1.404 4.14622L8.09625 0.294225C8.38075 0.130058 8.682 0.0479736 9 0.0479736C9.318 0.0479736 9.61925 0.130058 9.90375 0.294225L16.596 4.14622C16.8807 4.31022 17.1025 4.52939 17.2615 4.80372C17.4205 5.07822 17.5 5.37956 17.5 5.70772V13.2922C17.5 13.6204 17.4205 13.9217 17.2615 14.1962C17.1025 14.4706 16.8807 14.6897 16.596 14.8537L9.90375 18.7057C9.61925 18.8699 9.318 18.952 9 18.952C8.682 18.952 8.38075 18.8699 8.09625 18.7057ZM12.8558 6.39997L15.175 5.06922L9.15375 1.58647C9.10258 1.55447 9.05133 1.53847 9 1.53847C8.94867 1.53847 8.89742 1.55447 8.84625 1.58647L6.675 2.83647L12.8558 6.39997ZM9 8.63847L11.325 7.29222L5.15 3.72297L2.825 5.06922L9 8.63847Z" fill="#74879B"/>
</svg>
