<svg width="32" height="33" viewBox="0 0 32 33" fill="none" xmlns="http://www.w3.org/2000/svg">
<mask id="mask0_3924_14959" style="mask-type:alpha" maskUnits="userSpaceOnUse" x="0" y="0" width="32" height="33">
<rect y="0.5" width="32" height="32" fill="#D9D9D9"/>
</mask>
<g mask="url(#mask0_3924_14959)">
<path d="M14.6667 26.4V17.2666L6.66667 12.6333V21.7666L14.6667 26.4ZM17.3333 26.4L25.3333 21.7666V12.6333L17.3333 17.2666V26.4ZM16 14.9666L23.9 10.4L16 5.83329L8.1 10.4L16 14.9666ZM5.33333 24.1C4.91111 23.8555 4.58333 23.5333 4.35 23.1333C4.11667 22.7333 4 22.2888 4 21.8V11.2C4 10.7111 4.11667 10.2666 4.35 9.86663C4.58333 9.46663 4.91111 9.1444 5.33333 8.89996L14.6667 3.53329C15.0889 3.28885 15.5333 3.16663 16 3.16663C16.4667 3.16663 16.9111 3.28885 17.3333 3.53329L26.6667 8.89996C27.0889 9.1444 27.4167 9.46663 27.65 9.86663C27.8833 10.2666 28 10.7111 28 11.2V21.8C28 22.2888 27.8833 22.7333 27.65 23.1333C27.4167 23.5333 27.0889 23.8555 26.6667 24.1L17.3333 29.4666C16.9111 29.7111 16.4667 29.8333 16 29.8333C15.5333 29.8333 15.0889 29.7111 14.6667 29.4666L5.33333 24.1Z" fill="#74879B"/>
</g>
</svg>
