<svg width="20" height="24" viewBox="0 0 20 24" fill="none" xmlns="http://www.w3.org/2000/svg">
<path d="M0.37429 21.6174V2.21117C0.37429 1.67992 0.56179 1.2346 0.93679 0.875229C1.31179 0.515854 1.74929 0.336166 2.24929 0.336166C2.40554 0.336166 2.5696 0.359604 2.74148 0.406479C2.91335 0.453354 3.07742 0.523666 3.23367 0.617416L18.5149 10.3205C18.7962 10.508 19.0071 10.7424 19.1477 11.0237C19.2884 11.3049 19.3587 11.6018 19.3587 11.9143C19.3587 12.2268 19.2884 12.5237 19.1477 12.8049C19.0071 13.0862 18.7962 13.3205 18.5149 13.508L3.23367 23.2112C3.07742 23.3049 2.91335 23.3752 2.74148 23.4221C2.5696 23.469 2.40554 23.4924 2.24929 23.4924C1.74929 23.4924 1.31179 23.3127 0.93679 22.9534C0.56179 22.594 0.37429 22.1487 0.37429 21.6174Z" fill="white"/>
</svg>
