<svg width="32" height="32" viewBox="0 0 32 32" fill="none" xmlns="http://www.w3.org/2000/svg">
<g clip-path="url(#clip0_3924_14973)">
<path d="M16 28C22.6274 28 28 22.6274 28 16C28 9.37258 22.6274 4 16 4C9.37258 4 4 9.37258 4 16C4 22.6274 9.37258 28 16 28Z" stroke="#74879B" stroke-width="2.5" stroke-linecap="round" stroke-linejoin="round"/>
<path d="M4.7998 12H27.1998" stroke="#74879B" stroke-width="2.5" stroke-linecap="round" stroke-linejoin="round"/>
<path d="M4.7998 20H27.1998" stroke="#74879B" stroke-width="2.5" stroke-linecap="round" stroke-linejoin="round"/>
<path d="M15.3335 4C13.0873 7.59948 11.8965 11.7572 11.8965 16C11.8965 20.2428 13.0873 24.4005 15.3335 28" stroke="#74879B" stroke-width="2.5" stroke-linecap="round" stroke-linejoin="round"/>
<path d="M16.667 4C18.9132 7.59948 20.1041 11.7572 20.1041 16C20.1041 20.2428 18.9132 24.4005 16.667 28" stroke="#74879B" stroke-width="2.5" stroke-linecap="round" stroke-linejoin="round"/>
</g>
<defs>
<clipPath id="clip0_3924_14973">
<rect width="32" height="32" fill="white"/>
</clipPath>
</defs>
</svg>
