<svg width="24" height="24" viewBox="0 0 20 19" fill="none" xmlns="http://www.w3.org/2000/svg">
<path d="M10 19C8.6975 19 7.46833 18.7503 6.3125 18.251C5.15667 17.7517 4.14867 17.0718 3.2885 16.2115C2.42817 15.3513 1.74833 14.3433 1.249 13.1875C0.749667 12.0317 0.5 10.8025 0.5 9.5C0.5 8.18717 0.749667 6.95542 1.249 5.80475C1.74833 4.65408 2.42817 3.64867 3.2885 2.7885C4.14867 1.92817 5.15667 1.24833 6.3125 0.749001C7.46833 0.249667 8.6975 0 10 0C11.3128 0 12.5446 0.249667 13.6953 0.749001C14.8459 1.24833 15.8513 1.92817 16.7115 2.7885C17.5718 3.64867 18.2517 4.65408 18.751 5.80475C19.2503 6.95542 19.5 8.18717 19.5 9.5C19.5 10.8025 19.2503 12.0317 18.751 13.1875C18.2517 14.3433 17.5718 15.3513 16.7115 16.2115C15.8513 17.0718 14.8459 17.7517 13.6953 18.251C12.5446 18.7503 11.3128 19 10 19ZM10 17.4788C10.5103 16.8019 10.9398 16.1192 11.2885 15.4307C11.6372 14.7422 11.9212 13.9897 12.1405 13.173H7.8595C8.09167 14.0153 8.37892 14.7808 8.72125 15.4693C9.06342 16.1578 9.48967 16.8276 10 17.4788ZM8.0635 17.2038C7.68017 16.6538 7.33592 16.0285 7.03075 15.328C6.72558 14.6273 6.48842 13.909 6.31925 13.173H2.927C3.45517 14.2115 4.1635 15.084 5.052 15.7905C5.9405 16.4968 6.94433 16.9679 8.0635 17.2038ZM11.9365 17.2038C13.0557 16.9679 14.0595 16.4968 14.948 15.7905C15.8365 15.084 16.5448 14.2115 17.073 13.173H13.6807C13.4794 13.9153 13.2262 14.6368 12.921 15.3375C12.616 16.0382 12.2878 16.6602 11.9365 17.2038ZM2.298 11.673H6.0155C5.95267 11.3013 5.90708 10.9369 5.87875 10.5798C5.85058 10.2227 5.8365 9.86283 5.8365 9.5C5.8365 9.13717 5.85058 8.77725 5.87875 8.42025C5.90708 8.06308 5.95267 7.69867 6.0155 7.327H2.298C2.20183 7.66667 2.12817 8.01983 2.077 8.3865C2.02567 8.75317 2 9.12433 2 9.5C2 9.87567 2.02567 10.2468 2.077 10.6135C2.12817 10.9802 2.20183 11.3333 2.298 11.673ZM7.51525 11.673H12.4848C12.5474 11.3013 12.5929 10.9402 12.6212 10.5895C12.6494 10.2388 12.6635 9.87567 12.6635 9.5C12.6635 9.12433 12.6494 8.76117 12.6212 8.4105C12.5929 8.05983 12.5474 7.69867 12.4848 7.327H7.51525C7.45258 7.69867 7.40708 8.05983 7.37875 8.4105C7.35058 8.76117 7.3365 9.12433 7.3365 9.5C7.3365 9.87567 7.35058 10.2388 7.37875 10.5895C7.40708 10.9402 7.45258 11.3013 7.51525 11.673ZM13.9845 11.673H17.702C17.7982 11.3333 17.8718 10.9802 17.923 10.6135C17.9743 10.2468 18 9.87567 18 9.5C18 9.12433 17.9743 8.75317 17.923 8.3865C17.8718 8.01983 17.7982 7.66667 17.702 7.327H13.9845C14.0473 7.69867 14.0929 8.06308 14.1212 8.42025C14.1494 8.77725 14.1635 9.13717 14.1635 9.5C14.1635 9.86283 14.1494 10.2227 14.1212 10.5798C14.0929 10.9369 14.0473 11.3013 13.9845 11.673ZM13.6807 5.827H17.073C16.5385 4.77567 15.835 3.90317 14.9625 3.2095C14.09 2.516 13.0813 2.04167 11.9365 1.7865C12.3198 2.3685 12.6608 3.00508 12.9595 3.69625C13.2583 4.38725 13.4987 5.0975 13.6807 5.827ZM7.8595 5.827H12.1405C11.9083 4.991 11.6163 4.22075 11.2645 3.51625C10.9125 2.81175 10.491 2.14675 10 1.52125C9.509 2.14675 9.0875 2.81175 8.7355 3.51625C8.38367 4.22075 8.09167 4.991 7.8595 5.827ZM2.927 5.827H6.31925C6.50125 5.0975 6.74167 4.38725 7.0405 3.69625C7.33917 3.00508 7.68017 2.3685 8.0635 1.7865C6.91217 2.04167 5.90192 2.51767 5.03275 3.2145C4.16342 3.91117 3.4615 4.782 2.927 5.827Z" fill="#74879B"/>
</svg>
